Coordinates
version=1
nRows=48
nColumns=11
inDegrees=yes

Units are S.I. units (second, meters, Newtons, ...)
If the header above contains a line with 'inDegrees', this indicates whether rotational values are in degrees (yes) or radians (no).

endheader
time	pelvis_tilt	pelvis_tx	pelvis_ty	hip_flexion_l	hip_flexion_r	knee_angle_l	knee_angle_r	ankle_angle_l	ankle_angle_r	lumbar_extension
      9.47000000	     47.80756790	      0.65645075	      1.11551707	     21.21848152	     17.20936681	    -65.15588884	    -57.14861996	    -17.85872436	    -27.01346602	    -47.67113932
      9.48000000	     47.81030630	      0.65644395	      1.11548749	     21.21886076	     17.21092620	    -65.19104990	    -57.15535987	    -17.85640677	    -27.01561282	    -47.67432016
      9.49000000	     47.80769594	      0.65644920	      1.11551272	     21.22089376	     17.20557772	    -65.21778415	    -57.13960172	    -17.85725428	    -27.01720751	    -47.67955533
      9.50000000	     47.81107739	      0.65642072	      1.11544801	     21.22524531	     17.21958693	    -65.24976651	    -57.16824292	    -17.85535872	    -27.02199514	    -47.69066530
      9.51000000	     47.80610343	      0.65642291	      1.11545910	     21.23236041	     17.21991295	    -65.26650670	    -57.15562821	    -17.85608027	    -27.02427687	    -47.69653825
      9.52000000	     47.80099477	      0.65640992	      1.11539810	     21.24332769	     17.23250252	    -65.27279098	    -57.17903753	    -17.86107086	    -27.02853202	    -47.70438191
      9.53000000	     47.79758830	      0.65641567	      1.11539492	     21.24154303	     17.23814325	    -65.26447012	    -57.18265192	    -17.86126105	    -27.02853918	    -47.70631916
      9.54000000	     47.79257929	      0.65641737	      1.11539286	     21.23939013	     17.24384709	    -65.25030136	    -57.18795441	    -17.86224937	    -27.02856807	    -47.70827280
      9.55000000	     47.78482377	      0.65643112	      1.11549749	     21.23408967	     17.22891404	    -65.21981903	    -57.16648650	    -17.86347681	    -27.02645279	    -47.71202394
      9.56000000	     47.85087295	      0.65638354	      1.11555667	     21.15292189	     17.15488658	    -65.18409835	    -57.15062945	    -17.92287216	    -27.05909578	    -47.78559826
      9.57000000	     47.80770957	      0.65643590	      1.11537915	     21.22322441	     17.22943976	    -65.19679969	    -57.19211240	    -17.89366785	    -27.03334398	    -47.74718533
      9.58000000	     47.85376076	      0.65639399	      1.11551673	     21.16097631	     17.15880537	    -65.14103245	    -57.17304331	    -18.03418496	    -27.00692190	    -47.80705340
      9.59000000	     47.85665478	      0.65641181	      1.11556014	     21.14438979	     17.14873873	    -65.09288658	    -57.17187466	    -17.98973962	    -27.00634730	    -47.80727349
      9.60000000	     47.85651471	      0.65641260	      1.11545102	     21.14804293	     17.16672525	    -65.05071756	    -57.19613385	    -17.98163362	    -27.00699918	    -47.82184264
      9.61000000	     47.85011252	      0.65642038	      1.11548994	     21.15381960	     17.16641057	    -65.00839014	    -57.18248870	    -17.97918368	    -27.00737088	    -47.83131112
      9.62000000	     47.85390279	      0.65642309	      1.11538372	     21.16109481	     17.17639524	    -64.96712146	    -57.19526391	    -17.98237211	    -27.00899968	    -47.83921221
      9.63000000	     47.89201751	      0.65642925	      1.11551066	     21.09593872	     17.11707111	    -64.87612767	    -57.17453707	    -18.02993271	    -27.04050772	    -47.87662690
      9.64000000	     47.88831385	      0.65640650	      1.11539912	     21.11018492	     17.13752371	    -64.82180575	    -57.18150890	    -18.03128718	    -27.04110551	    -47.89355357
      9.65000000	     47.87702124	      0.65643223	      1.11538248	     21.10065775	     17.14956137	    -64.72731746	    -57.17497902	    -18.04245806	    -27.04978661	    -47.88858289
      9.66000000	     47.88734088	      0.65642461	      1.11537515	     21.10780509	     17.14506325	    -64.68155607	    -57.18945983	    -18.20943025	    -27.06117879	    -47.89007211
      9.67000000	     47.87861872	      0.65641977	      1.11538051	     21.09311607	     17.16412902	    -64.58557638	    -57.22001553	    -18.23551359	    -27.05331032	    -47.88968123
      9.68000000	     47.87931640	      0.65642303	      1.11535140	     21.10021760	     17.17318899	    -64.52715304	    -57.23539355	    -18.23482609	    -27.05175658	    -47.90200042
      9.69000000	     47.87525701	      0.65643521	      1.11531235	     21.10998352	     17.18303394	    -64.46510063	    -57.24414193	    -18.23621998	    -27.04911388	    -47.92083639
      9.70000000	     47.87079417	      0.65642979	      1.11532016	     21.10269595	     17.18333756	    -64.36917176	    -57.23566801	    -18.26498025	    -27.03792231	    -47.91790114
      9.71000000	     47.87099171	      0.65643252	      1.11529882	     21.11141790	     17.19024266	    -64.31257319	    -57.24797943	    -18.27098564	    -27.03621318	    -47.93242281
      9.72000000	     47.88478707	      0.65641046	      1.11531936	     21.08655055	     17.17710063	    -64.21439167	    -57.25164349	    -18.43384984	    -26.98287875	    -47.95183856
      9.73000000	     47.88829793	      0.65641459	      1.11526899	     21.10318052	     17.17934186	    -64.17027258	    -57.26128407	    -18.43241344	    -26.98145139	    -47.96658245
      9.74000000	     47.88380668	      0.65641152	      1.11526739	     21.10195243	     17.18576636	    -64.09318218	    -57.26511993	    -18.43496424	    -26.97735589	    -47.97553374
      9.75000000	     47.91896178	      0.65644029	      1.11528066	     21.05958869	     17.13765858	    -64.03233811	    -57.23163093	    -18.47194114	    -27.01166904	    -48.00873813
      9.76000000	     47.91698005	      0.65643860	      1.11527061	     21.06205979	     17.13930564	    -63.96262346	    -57.21542366	    -18.46702032	    -27.01786102	    -48.01328444
      9.77000000	     47.91679445	      0.65645442	      1.11526299	     21.05988999	     17.14188449	    -63.88709270	    -57.22645938	    -18.47469610	    -27.02075565	    -48.02047837
      9.78000000	     47.95397781	      0.65645445	      1.11528096	     21.01825425	     17.10233757	    -63.82905722	    -57.23086524	    -18.59500496	    -27.01777611	    -48.06257452
      9.79000000	     47.95086348	      0.65645516	      1.11527310	     21.01839259	     17.10856581	    -63.75848315	    -57.23266778	    -18.59312511	    -27.01573211	    -48.06732252
      9.80000000	     47.94649536	      0.65646620	      1.11527567	     21.01992896	     17.10584470	    -63.68955557	    -57.22148431	    -18.60571968	    -27.01130314	    -48.06892632
      9.81000000	     47.94545536	      0.65649237	      1.11526880	     21.00082460	     17.11467298	    -63.60794229	    -57.23705002	    -18.61387112	    -27.02062687	    -48.06593126
      9.82000000	     47.94462426	      0.65648770	      1.11523506	     20.99883079	     17.12010761	    -63.55769787	    -57.24527409	    -18.61259591	    -27.02225577	    -48.07328377
      9.83000000	     47.94294057	      0.65651046	      1.11529568	     20.98997187	     17.11136185	    -63.49271210	    -57.21787479	    -18.61759349	    -27.02223647	    -48.07124517
      9.84000000	     47.97346697	      0.65649025	      1.11532177	     20.95139607	     17.07569224	    -63.43948322	    -57.22479151	    -18.73815598	    -26.98974825	    -48.10702511
      9.85000000	     47.97394389	      0.65650983	      1.11529991	     20.95153905	     17.07739327	    -63.40190077	    -57.22984055	    -18.73546558	    -26.98889650	    -48.10737694
      9.86000000	     47.98332856	      0.65652670	      1.11533212	     20.93102397	     17.06403385	    -63.33961382	    -57.23377598	    -18.83507899	    -27.01373698	    -48.11210264
      9.87000000	     47.98333001	      0.65652331	      1.11532060	     20.93011865	     17.06936794	    -63.30639485	    -57.23791948	    -18.82857496	    -27.01488320	    -48.11218623
      9.88000000	     47.98402786	      0.65654331	      1.11532205	     20.92827342	     17.06999490	    -63.27319766	    -57.25071929	    -18.82723001	    -27.01373987	    -48.10678860
      9.89000000	     47.98235097	      0.65654918	      1.11533475	     20.92567229	     17.07331037	    -63.23965269	    -57.24946087	    -18.83005785	    -27.01354957	    -48.10104991
      9.90000000	     47.98150223	      0.65655856	      1.11533844	     20.92229673	     17.07033669	    -63.21785121	    -57.24910841	    -18.84133669	    -27.01187355	    -48.08787446
      9.91000000	     47.97889048	      0.65659846	      1.11539438	     20.91314537	     17.05881337	    -63.18281850	    -57.23511626	    -18.87050443	    -27.01082393	    -48.07255133
      9.92000000	     48.00006798	      0.65659549	      1.11538310	     20.88892002	     17.03827623	    -63.15615000	    -57.24716840	    -19.00279820	    -26.93873605	    -48.08802605
      9.93000000	     48.00195449	      0.65659579	      1.11537004	     20.88507579	     17.03906744	    -63.14214187	    -57.25377507	    -19.00163490	    -26.93943849	    -48.08249372
      9.94000000	     48.00280702	      0.65657686	      1.11535511	     20.88697898	     17.03794602	    -63.14001094	    -57.25269773	    -19.00109395	    -26.93945807	    -48.08221132
